<svg width="24" height="24" viewBox="0 0 24 24" fill="none" xmlns="http://www.w3.org/2000/svg">
<path d="M8.24996 2C5.48853 2 3.24996 4.23858 3.24996 7V10.3761C3.24996 10.961 3.07899 11.5331 2.7581 12.0221L1.16391 14.4513C0.96228 14.7586 0.6687 15.1517 0.843278 15.475C1.01786 15.7984 1.87409 15.6178 2.24159 15.6178L6.99996 15.475H9.0965H12C14.7614 15.475 16.5268 13.7614 16.5268 11V8.16241V7C16.5268 4.23858 14.7614 2 12 2H8.24996Z" stroke="white" stroke-opacity="0.9" stroke-width="2" stroke-linecap="round" stroke-linejoin="round"/>
<path d="M20.75 16.3761V13C20.75 11.0345 20.1987 9.4028 18.5982 8.59119V11C18.5982 15.475 17 17.6713 12 17.6713H9.32518H6.99996C6.99996 20.4327 9.23853 22 12 22H22C22.3675 22 22.7053 21.7984 22.8799 21.475C23.0545 21.1517 23.0376 20.7586 22.836 20.4513L21.2418 18.0221C20.9209 17.5331 20.75 16.961 20.75 16.3761Z" stroke="white" stroke-opacity="0.9" stroke-width="2" stroke-linecap="round" stroke-linejoin="round"/>
</svg>
