<svg width="32" height="24" viewBox="0 0 32 24" fill="none" xmlns="http://www.w3.org/2000/svg">
<path fill-rule="evenodd" clip-rule="evenodd" d="M7.25 7C7.25 4.23858 9.48858 2 12.25 2H16C18.7614 2 21 4.23858 21 7V8.11774C23.1013 8.61728 24.75 10.6441 24.75 13V16.3761C24.75 16.961 24.921 17.5331 25.2419 18.0221L26.8361 20.4513C27.0377 20.7586 27.0545 21.1517 26.88 21.475C26.7054 21.7984 26.3675 22 26 22H16C13.2386 22 11 19.7614 11 17V16H6C5.63251 16 5.29462 15.7984 5.12004 15.475C4.94546 15.1517 4.96232 14.7586 5.16395 14.4513L6.75815 12.0221C7.07904 11.5331 7.25 10.961 7.25 10.3761V7Z" fill="#00B09F"/>
<path d="M21 8.11774V7C21 4.23858 18.7614 2 16 2H12.25C9.48858 2 7.25 4.23858 7.25 7V10.3761C7.25 10.961 7.07904 11.5331 6.75815 12.0221L5.16395 14.4513C4.96232 14.7586 4.94546 15.1517 5.12004 15.475C5.29462 15.7984 5.63251 16 6 16H11M21 8.11774C23.1013 8.61728 24.75 10.6441 24.75 13V16.3761C24.75 16.961 24.921 17.5331 25.2419 18.0221L26.8361 20.4513C27.0377 20.7586 27.0545 21.1517 26.88 21.475C26.7054 21.7984 26.3675 22 26 22H16C13.2386 22 11 19.7614 11 17V16M21 8.11774V11C21 13.7614 18.7614 16 16 16H13H11" stroke="black" stroke-opacity="0.36" stroke-linecap="round" stroke-linejoin="round"/>
</svg>
