<svg width="24" height="24" viewBox="0 0 24 24" fill="none" xmlns="http://www.w3.org/2000/svg">
<path d="M19.6093 9.19604L19.2756 9.01038C19.2238 8.98155 19.1983 8.96709 19.1733 8.95209C18.9244 8.80302 18.7146 8.59705 18.5616 8.35063C18.5462 8.32583 18.5317 8.29983 18.502 8.24844C18.4723 8.19712 18.4573 8.17111 18.4435 8.14536C18.3062 7.88899 18.2319 7.60329 18.2275 7.31251C18.227 7.28327 18.2271 7.2534 18.2281 7.19402L18.2347 6.80648C18.2451 6.18632 18.2503 5.87527 18.1632 5.59613C18.0858 5.34818 17.9563 5.1198 17.7833 4.92599C17.5878 4.70691 17.3172 4.55062 16.7755 4.23843L16.3255 3.97911C15.7852 3.66779 15.515 3.51207 15.2282 3.45271C14.9744 3.40019 14.7125 3.40262 14.4597 3.45938C14.1744 3.52344 13.9075 3.68322 13.3742 4.00258L13.3711 4.00403L13.0487 4.19709C12.9977 4.22762 12.9719 4.24301 12.9464 4.25722C12.6928 4.39821 12.4097 4.47618 12.1196 4.48548C12.0904 4.48642 12.0607 4.48642 12.0012 4.48642C11.9422 4.48642 11.9111 4.48642 11.882 4.48548C11.5914 4.47614 11.3077 4.39775 11.0537 4.25617C11.0281 4.2419 11.0028 4.22639 10.9517 4.19572L10.6272 4.00091C10.0902 3.67852 9.82127 3.51709 9.53432 3.45271C9.28046 3.39575 9.01771 3.39417 8.76303 3.44737C8.47547 3.50743 8.20519 3.6643 7.66462 3.97804L7.66222 3.97911L7.21781 4.23704L7.21289 4.24005C6.67719 4.55096 6.4087 4.70679 6.21485 4.92498C6.04283 5.11859 5.91426 5.34661 5.8373 5.5939C5.75031 5.87343 5.75495 6.18514 5.76543 6.80823L5.77194 7.19522C5.77293 7.25382 5.77464 7.28294 5.77421 7.31176C5.7699 7.60315 5.69465 7.88943 5.55694 8.14625C5.54332 8.17165 5.52864 8.19705 5.49934 8.24778C5.47001 8.29855 5.45581 8.3238 5.4406 8.3483C5.28684 8.59604 5.07613 8.80321 4.8257 8.95254C4.80093 8.96731 4.77482 8.98151 4.72353 9.00994L4.39403 9.19253C3.84583 9.49633 3.57179 9.64836 3.37238 9.86472C3.19598 10.0561 3.06272 10.2831 2.98138 10.5304C2.88942 10.8099 2.8895 11.1233 2.89093 11.7501L2.89209 12.2623C2.8935 12.8849 2.89544 13.196 2.9876 13.4736C3.06913 13.7192 3.20142 13.9449 3.37683 14.1351C3.57511 14.3501 3.84642 14.5012 4.39047 14.8039L4.71703 14.9856C4.7726 15.0165 4.80057 15.0317 4.82737 15.0479C5.07553 15.1973 5.28459 15.4039 5.43704 15.6502C5.45351 15.6768 5.46932 15.7045 5.50094 15.7597C5.53216 15.8142 5.54814 15.8415 5.56258 15.8689C5.69624 16.1219 5.76781 16.4031 5.77268 16.6892C5.77321 16.7201 5.77276 16.7514 5.7717 16.8143L5.76543 17.1856C5.75487 17.8109 5.75028 18.1238 5.83778 18.4041C5.91519 18.6521 6.04457 18.8804 6.21752 19.0743C6.41302 19.2934 6.68403 19.4495 7.22582 19.7617L7.67573 20.021C8.216 20.3323 8.48603 20.4879 8.77286 20.5472C9.0266 20.5997 9.28861 20.5977 9.54144 20.5409C9.82721 20.4768 10.095 20.3165 10.6298 19.9962L10.9523 19.8031C11.0033 19.7726 11.0291 19.7573 11.0547 19.7431C11.3083 19.6021 11.5911 19.5237 11.8811 19.5144C11.9103 19.5134 11.94 19.5134 11.9995 19.5134C12.0591 19.5134 12.0888 19.5134 12.1181 19.5144C12.4087 19.5237 12.6933 19.6024 12.9472 19.7439C12.9696 19.7564 12.992 19.7699 13.0313 19.7935L13.3741 19.9993C13.9112 20.3217 14.1795 20.4827 14.4664 20.547C14.7203 20.604 14.9833 20.6063 15.2379 20.5531C15.5254 20.4931 15.7963 20.3359 16.3365 20.0223L16.7876 19.7605C17.3237 19.4494 17.5924 19.2934 17.7863 19.0752C17.9584 18.8815 18.0871 18.6536 18.1641 18.4063C18.2504 18.1288 18.2452 17.8195 18.2349 17.2054L18.2281 16.8049C18.2272 16.7463 18.227 16.7172 18.2275 16.6883C18.2318 16.397 18.3058 16.1105 18.4435 15.8537C18.4571 15.8283 18.4719 15.8027 18.5011 15.7521C18.5304 15.7014 18.5456 15.6761 18.5608 15.6516C18.7146 15.4038 18.9255 15.1965 19.1759 15.0471C19.2004 15.0325 19.2256 15.0186 19.2757 14.9908L19.2774 14.99L19.6069 14.8074C20.1551 14.5037 20.4297 14.3515 20.6291 14.1351C20.8055 13.9437 20.9385 13.717 21.0199 13.4697C21.1113 13.1919 21.1106 12.8803 21.1092 12.2609L21.108 11.7376C21.1066 11.115 21.1058 10.804 21.0137 10.5264C20.9321 10.2808 20.7991 10.0551 20.6237 9.86486C20.4256 9.65003 20.1539 9.49889 19.6109 9.19681L19.6093 9.19604Z" stroke="white" stroke-opacity="0.9" stroke-width="2" stroke-linecap="round" stroke-linejoin="round"/>
<path d="M8.35515 12.0001C8.35515 14.0133 9.98716 15.6453 12.0003 15.6453C14.0135 15.6453 15.6455 14.0133 15.6455 12.0001C15.6455 9.98695 14.0135 8.35494 12.0003 8.35494C9.98716 8.35494 8.35515 9.98695 8.35515 12.0001Z" stroke="white" stroke-opacity="0.9" stroke-width="2" stroke-linecap="round" stroke-linejoin="round"/>
</svg>
