<svg width="225" height="111" viewBox="0 0 225 111" fill="none" xmlns="http://www.w3.org/2000/svg">
<path d="M70.0605 42.9072V71.8171H64.1631V42.9072H70.0605Z" fill="url(#paint0_linear_21_982)"/>
<path d="M94.0767 52.3096V71.8505C94.0767 77.9068 89.3504 81.6209 83.5785 81.6209C77.8065 81.6209 73.8498 78.1494 73.4483 73.2642L79.3039 73.306C79.5465 75.3638 81.3617 76.2924 83.7876 76.2924C86.2135 76.2924 88.1877 75.0794 88.1877 71.8923V69.433C86.6903 70.4033 84.758 70.9638 82.6165 70.9638C77.2461 70.9638 72.9297 66.6056 72.9297 61.5948C72.9297 56.5841 77.2461 51.8662 82.6165 51.8662C87.9869 51.8662 86.6903 52.435 88.1877 53.397V52.3514L94.0851 52.3096H94.0767ZM88.1877 63.82V59.0519C86.9747 57.3119 85.3184 56.7096 83.6621 56.7096C80.7594 56.7096 78.7769 58.6503 78.7769 61.5948C78.7769 64.5394 80.7929 66.1204 83.6621 66.1204C85.3184 66.1622 87.0166 65.5516 88.1877 63.82Z" fill="url(#paint1_linear_21_982)"/>
<path d="M117.575 61.8373C117.575 67.8519 113.133 72.1348 107.16 72.1348C101.187 72.1348 96.7036 67.8519 96.7036 61.8373C96.7036 55.8228 101.145 51.498 107.16 51.498C113.175 51.498 117.575 55.8563 117.575 61.8373ZM111.886 61.8373C111.886 59.0099 110.029 56.7095 107.16 56.7095C104.291 56.7095 102.392 59.0099 102.392 61.8373C102.392 64.6647 104.249 66.9233 107.16 66.9233C110.029 66.8815 111.886 64.74 111.886 61.8373Z" fill="url(#paint2_linear_21_982)"/>
<path d="M154.155 52.3511V71.7665L148.383 71.8083V70.7209C146.886 71.6912 144.953 72.2935 142.812 72.2935C137.441 72.2935 133.125 67.7345 133.125 62.1215C133.125 56.5085 137.441 51.9077 142.812 51.9077C148.182 51.9077 146.886 52.51 148.383 53.4804V52.3929L154.155 52.3511ZM148.341 65.066V59.1352C147.128 57.3952 145.43 56.9184 143.74 56.9184C140.796 56.9184 138.738 59.3025 138.738 62.1299C138.738 64.9573 140.796 67.2995 143.74 67.2995C146.685 67.2995 147.128 66.8144 148.341 65.0828V65.066Z" fill="url(#paint3_linear_21_982)"/>
<path d="M177.895 61.2767V71.8167H172.199V61.9626C172.199 58.7755 170.626 57.1192 167.798 57.1192C164.971 57.1192 164.687 57.9641 163.315 59.5785V71.8083H157.501V52.3929H163.315V53.8484C164.887 52.5937 166.744 51.9077 168.928 51.9077C174.097 51.9077 177.887 55.5382 177.887 61.2767H177.895Z" fill="url(#paint4_linear_21_982)"/>
<path d="M61.4612 71.7752H55.4885L51.5736 57.2785L43.175 71.7752H36.4746L49.4321 49.3316L47.3325 41.5019L29.8494 71.7836H23.1489L45.3165 33.3877H51.2139L53.7569 42.9574H59.8132L55.6976 50.143L61.4695 71.7836L61.4612 71.7752Z" fill="url(#paint5_linear_21_982)"/>
<path d="M201.351 42.9072V71.8171H195.454V70.7296C193.956 71.7 192.024 72.3023 189.883 72.3023C184.512 72.3023 180.196 67.7433 180.196 62.0884C180.196 56.4336 184.512 51.9165 189.883 51.9165C195.253 51.9165 193.956 52.5188 195.454 53.4891V42.9072H201.351ZM195.462 65.0664V59.0937C194.249 57.3538 192.518 56.877 190.82 56.877C187.833 56.877 185.775 59.261 185.775 62.0884C185.775 64.9159 187.833 67.3334 190.82 67.3334C192.518 67.3334 194.207 66.8482 195.462 65.0748V65.0664Z" fill="url(#paint6_linear_21_982)"/>
<path d="M132.029 57.2785C130.741 57.4374 127.746 57.6047 125.973 60.0222V71.8087H120.159V52.4267H125.973V53.8822C127.303 52.7529 129.286 52.067 132.029 52.3514V57.2785Z" fill="url(#paint7_linear_21_982)"/>
<defs>
<linearGradient id="paint0_linear_21_982" x1="67.1118" y1="42.9072" x2="67.1118" y2="71.8171" gradientUnits="userSpaceOnUse">
<stop stop-color="#6BFAD6"/>
<stop offset="1" stop-color="#00B093"/>
</linearGradient>
<linearGradient id="paint1_linear_21_982" x1="83.5074" y1="51.8662" x2="83.5074" y2="81.6209" gradientUnits="userSpaceOnUse">
<stop stop-color="#6BFAD6"/>
<stop offset="1" stop-color="#00B093"/>
</linearGradient>
<linearGradient id="paint2_linear_21_982" x1="107.139" y1="51.498" x2="107.139" y2="72.1348" gradientUnits="userSpaceOnUse">
<stop stop-color="#6BFAD6"/>
<stop offset="1" stop-color="#00B093"/>
</linearGradient>
<linearGradient id="paint3_linear_21_982" x1="143.64" y1="51.9077" x2="143.64" y2="72.2935" gradientUnits="userSpaceOnUse">
<stop stop-color="#6BFAD6"/>
<stop offset="1" stop-color="#00B093"/>
</linearGradient>
<linearGradient id="paint4_linear_21_982" x1="167.698" y1="51.9077" x2="167.698" y2="71.8167" gradientUnits="userSpaceOnUse">
<stop stop-color="#6BFAD6"/>
<stop offset="1" stop-color="#00B093"/>
</linearGradient>
<linearGradient id="paint5_linear_21_982" x1="42.3092" y1="33.3877" x2="42.3092" y2="71.7836" gradientUnits="userSpaceOnUse">
<stop stop-color="#6BFAD6"/>
<stop offset="1" stop-color="#00B093"/>
</linearGradient>
<linearGradient id="paint6_linear_21_982" x1="190.774" y1="42.9072" x2="190.774" y2="72.3023" gradientUnits="userSpaceOnUse">
<stop stop-color="#6BFAD6"/>
<stop offset="1" stop-color="#00B093"/>
</linearGradient>
<linearGradient id="paint7_linear_21_982" x1="126.094" y1="52.2871" x2="126.094" y2="71.8087" gradientUnits="userSpaceOnUse">
<stop stop-color="#6BFAD6"/>
<stop offset="1" stop-color="#00B093"/>
</linearGradient>
</defs>
</svg>
