<svg width="22" height="22" viewBox="0 0 22 22" fill="none" xmlns="http://www.w3.org/2000/svg">
<g clip-path="url(#clip0_118_2052)">
<path d="M20.9656 7.7328C21.6468 7.7328 22 7.35436 22 6.67317V3.75918C22 1.27408 20.7259 0 18.203 0H15.289C14.6078 0 14.2293 0.37844 14.2293 1.04702C14.2293 1.70298 14.6078 2.08142 15.289 2.08142H18.1273C19.2752 2.08142 19.9312 2.69954 19.9312 3.89793V6.67317C19.9312 7.35436 20.297 7.7328 20.9656 7.7328ZM1.0344 7.7328C1.7156 7.7328 2.08142 7.35436 2.08142 6.67317V3.89793C2.08142 2.69954 2.72477 2.08142 3.88532 2.08142H6.72362C7.3922 2.08142 7.77064 1.70298 7.77064 1.04702C7.77064 0.37844 7.3922 0 6.72362 0H3.80963C1.2867 0 0 1.27408 0 3.75918V6.67317C0 7.35436 0.37844 7.7328 1.0344 7.7328ZM10.0666 13.1698H10.18C11.3911 13.1698 12.047 12.5138 12.047 11.3028V7.54358C12.047 7.07683 11.7317 6.76147 11.2649 6.76147C10.7729 6.76147 10.4702 7.07683 10.4702 7.54358V11.3911C10.4702 11.5046 10.3945 11.5677 10.281 11.5677H9.88992C9.44836 11.5677 9.1078 11.9082 9.1078 12.3498C9.1078 12.867 9.46101 13.1698 10.0666 13.1698ZM6.72362 10.3692C7.3039 10.3692 7.70757 9.96563 7.70757 9.38529V7.75803C7.70757 7.17776 7.3039 6.77408 6.72362 6.77408C6.16858 6.77408 5.76491 7.19037 5.76491 7.75803V9.38529C5.76491 9.96563 6.16858 10.3692 6.72362 10.3692ZM15.289 10.3692C15.844 10.3692 16.2603 9.96563 16.2603 9.38529V7.75803C16.2603 7.19037 15.844 6.77408 15.289 6.77408C14.7087 6.77408 14.305 7.17776 14.305 7.75803V9.38529C14.305 9.96563 14.7087 10.3692 15.289 10.3692ZM10.9621 16.8153C12.4002 16.8153 13.8636 16.1972 14.8979 15.1629C15.0493 15.0241 15.125 14.8222 15.125 14.57C15.125 14.1158 14.7718 13.7879 14.3303 13.7879C14.0906 13.7879 13.9266 13.8636 13.6996 14.1158C13.0562 14.7844 12.0092 15.2511 10.9621 15.2511C9.95298 15.2511 8.91858 14.8097 8.22477 14.1158C8.03555 13.9266 7.87156 13.7879 7.58142 13.7879C7.13991 13.7879 6.7867 14.1158 6.7867 14.57C6.7867 14.7844 6.86239 14.9737 7.02638 15.1502C7.98509 16.2477 9.49887 16.8153 10.9621 16.8153ZM3.80963 22H6.72362C7.3922 22 7.77064 21.6342 7.77064 20.9656C7.77064 20.297 7.3922 19.9312 6.72362 19.9312H3.88532C2.72477 19.9312 2.08142 19.3131 2.08142 18.1021V15.3268C2.08142 14.6582 1.70298 14.2798 1.0344 14.2798C0.365826 14.2798 0 14.6582 0 15.3268V18.2408C0 20.7386 1.2867 22 3.80963 22ZM15.289 22H18.203C20.7259 22 22 20.7386 22 18.2408V15.3268C22 14.6582 21.6342 14.2798 20.9656 14.2798C20.2844 14.2798 19.9312 14.6582 19.9312 15.3268V18.1021C19.9312 19.3131 19.2752 19.9312 18.1273 19.9312H15.289C14.6078 19.9312 14.2293 20.297 14.2293 20.9656C14.2293 21.6342 14.6078 22 15.289 22Z" fill="white"/>
</g>
<defs>
<clipPath id="clip0_118_2052">
<rect width="22" height="22" fill="white"/>
</clipPath>
</defs>
</svg>
