<svg width="25" height="25" viewBox="0 0 25 25" fill="none" xmlns="http://www.w3.org/2000/svg">
<path d="M7.45312 0.58252C9.55278 -0.0769179 11.807 -0.0607147 13.8965 0.630371C15.986 1.3215 17.8053 2.65266 19.0977 4.43408C20.3899 6.21539 21.0901 8.35748 21.0986 10.5581V10.9604C21.0985 11.093 21.0458 11.2201 20.9521 11.314C20.8582 11.4079 20.7305 11.4613 20.5977 11.4614C20.4647 11.4614 20.3372 11.408 20.2432 11.314C20.1732 11.2439 20.1259 11.1556 20.1064 11.0601H16.4316C16.4221 11.3039 16.4051 11.5504 16.3838 11.7954V11.7964C16.3713 11.9203 16.3132 12.0353 16.2207 12.1187C16.1511 12.1813 16.0656 12.2233 15.9746 12.2397L15.8828 12.2476H15.833V12.2466C15.7675 12.2397 15.7034 12.2204 15.6455 12.189C15.5877 12.1575 15.5365 12.1151 15.4951 12.064C15.4537 12.0128 15.423 11.9533 15.4043 11.8901C15.3857 11.8271 15.3798 11.7611 15.3867 11.6958C15.4075 11.4808 15.4255 11.2698 15.4307 11.0601H11.0684V14.0972C11.7736 14.1222 12.4753 14.2061 13.166 14.3491L13.4746 14.4175L13.4824 14.4194L13.5684 14.4565C13.6504 14.5012 13.7192 14.5684 13.7656 14.6509C13.8274 14.7607 13.8455 14.8896 13.8164 15.0122C13.7873 15.1348 13.713 15.2417 13.6084 15.312C13.5038 15.3824 13.3766 15.4114 13.252 15.3921L13.2451 15.3911V15.3901C12.5304 15.2249 11.8013 15.1293 11.0684 15.1011V19.603C11.6193 19.1714 12.1328 18.6941 12.5986 18.1714L12.6016 18.1685C12.6909 18.0755 12.8126 18.0207 12.9414 18.0151C13.0704 18.0097 13.197 18.054 13.2939 18.1392C13.3909 18.2245 13.4509 18.3445 13.4619 18.4731C13.4729 18.6018 13.4345 18.73 13.3535 18.8306L13.3506 18.8335C13.0019 19.2285 12.6256 19.5979 12.2285 19.9438C12.5681 19.8861 12.9043 19.81 13.2354 19.7144C13.2986 19.6938 13.3653 19.6864 13.4316 19.6919C13.4994 19.6975 13.566 19.7167 13.626 19.7485C13.6858 19.7804 13.7388 19.8246 13.7812 19.8774C13.8231 19.9297 13.8538 19.9898 13.8721 20.0542C13.8917 20.1192 13.8982 20.1879 13.8906 20.2554C13.8829 20.3229 13.8618 20.3887 13.8281 20.4478C13.7944 20.5068 13.7486 20.5582 13.6943 20.5991C13.6409 20.6394 13.5796 20.6678 13.5146 20.6841L13.5156 20.6851C11.4015 21.2963 9.14831 21.2274 7.0752 20.4888C5.00221 19.7501 3.21316 18.3792 1.96191 16.5688C0.710638 14.7584 0.0608237 12.6002 0.102539 10.3999C0.144312 8.19953 0.876237 6.0678 2.19531 4.30615C3.51437 2.54459 5.35358 1.24201 7.45312 0.58252ZM5.97754 16.0405C5.2172 16.3666 4.49515 16.7753 3.82422 17.2593C5.20778 18.662 6.99138 19.5983 8.92773 19.9409C7.69833 18.8477 6.69589 17.5224 5.97754 16.0405ZM10.0664 15.1011C8.99473 15.1507 7.93524 15.3473 6.91699 15.6851C7.66913 17.2095 8.74998 18.547 10.0811 19.603L10.0664 15.1011ZM1.08496 11.0601C1.18844 13.0424 1.91043 14.9421 3.15137 16.4917C3.90441 15.9386 4.71809 15.4733 5.57715 15.106C5.07483 13.8131 4.79207 12.446 4.73926 11.0601H1.08496ZM5.75293 11.0757C5.80131 12.3379 6.05747 13.5831 6.51074 14.7622C7.66322 14.372 8.86535 14.1485 10.0811 14.0981L10.0664 11.0757H5.75293ZM17.9053 4.51025C17.1795 5.07959 16.3913 5.56386 15.5557 5.95459C16.0792 7.26278 16.3774 8.64941 16.4385 10.0571H20.0898C19.9788 8.02084 19.2127 6.07552 17.9053 4.51025ZM14.6162 6.32861C13.4774 6.74858 12.281 6.98953 11.0684 7.04248V10.0571H15.4248C15.3651 8.77777 15.0909 7.5182 14.6162 6.32861ZM6.5293 6.32471C6.0617 7.51674 5.79628 8.77785 5.74219 10.0571H10.0664V7.04248C8.85725 6.98713 7.66441 6.74495 6.5293 6.32471ZM3.25684 4.51025C1.95525 6.07783 1.19437 8.02274 1.08496 10.0571H4.74023C4.80318 8.64939 5.10188 7.26266 5.62598 5.95459C4.78364 5.56501 3.98865 5.08099 3.25684 4.51025ZM10.0664 1.53662C8.7478 2.58428 7.67445 3.90802 6.92188 5.41553C7.9331 5.77984 8.99273 5.99022 10.0664 6.03955V1.53662ZM11.0684 6.03857C12.1395 5.98874 13.1965 5.77878 14.2051 5.41455C13.4543 3.90853 12.3842 2.58542 11.0684 1.5376V6.03857ZM8.92676 1.2085C7.04946 1.53829 5.31342 2.42685 3.94727 3.76123C4.5872 4.25918 5.27911 4.68612 6.01172 5.03369C6.72717 3.58133 7.71701 2.28206 8.92676 1.2085ZM12.2344 1.21045C13.446 2.28177 14.4369 3.58004 15.1533 5.03174C15.8918 4.68655 16.589 4.26046 17.2334 3.76123C15.8607 2.42539 14.1182 1.53627 12.2344 1.21045Z" fill="#00B093" stroke="#00B09F" stroke-width="0.2"/>
<path d="M15.3813 17.3789C15.3016 17.379 15.2248 17.4104 15.1685 17.4668C15.1121 17.5232 15.0807 17.6 15.0806 17.6797V22.9961C15.0806 23.0759 15.1121 23.1525 15.1685 23.209C15.2248 23.2654 15.3016 23.2967 15.3813 23.2969H23.0044C23.0842 23.2969 23.1608 23.2653 23.2173 23.209C23.2737 23.1525 23.3061 23.0759 23.3062 22.9961V17.6797C23.3061 17.5999 23.2737 17.5232 23.2173 17.4668C23.1608 17.4105 23.0841 17.3789 23.0044 17.3789H15.3813ZM19.1929 12.3799C18.3062 12.3811 17.4562 12.734 16.8296 13.3613C16.2029 13.9888 15.8511 14.8398 15.8511 15.7266V16.376H16.4858V15.5254C16.4859 14.8073 16.7711 14.1191 17.2788 13.6113C17.7865 13.1036 18.4749 12.8175 19.1929 12.8174C19.911 12.8174 20.6001 13.1035 21.1079 13.6113C21.6156 14.1191 21.9008 14.8074 21.9009 15.5254V16.376H22.5356V15.7266C22.5356 14.8398 22.1838 13.9888 21.5571 13.3613C20.9304 12.7339 20.0797 12.3809 19.1929 12.3799ZM19.1929 13.8203C18.7409 13.8204 18.3075 13.9998 17.9878 14.3193C17.668 14.6391 17.4878 15.0732 17.4878 15.5254V16.376H20.8989V15.5254C20.8989 15.0732 20.7187 14.6391 20.3989 14.3193C20.0791 13.9997 19.645 13.8203 19.1929 13.8203ZM24.3081 22.9961C24.3081 23.3418 24.1707 23.6735 23.9263 23.918C23.6818 24.1623 23.35 24.2998 23.0044 24.2998H15.3813C15.0359 24.2997 14.7048 24.1621 14.4604 23.918C14.216 23.6735 14.0786 23.3418 14.0786 22.9961V17.6787C14.0829 17.4191 14.1643 17.166 14.313 16.9531C14.448 16.7599 14.6339 16.61 14.8481 16.5137V15.7266C14.8481 14.5745 15.3061 13.4691 16.1206 12.6543C16.9353 11.8396 18.0407 11.3819 19.1929 11.3818C20.3452 11.3818 21.4503 11.8395 22.2651 12.6543C23.0799 13.4691 23.5376 14.5743 23.5376 15.7266V16.5127C23.7523 16.609 23.9385 16.7595 24.0737 16.9531C24.2224 17.166 24.3039 17.4191 24.3081 17.6787V22.9961Z" fill="#00B093" stroke="#00B09F" stroke-width="0.2"/>
</svg>
