<svg width="22" height="24" viewBox="0 0 22 24" fill="none" xmlns="http://www.w3.org/2000/svg">
<path d="M12.3866 9.33813V8.81218C12.3866 8.59406 12.2096 8.41704 11.9914 8.41704C11.7733 8.41704 11.5963 8.59406 11.5963 8.81218V9.33813H11.1448V8.81218C11.1448 8.59406 10.9677 8.41704 10.7496 8.41704C10.5315 8.41704 10.3545 8.59406 10.3545 8.81218V9.33813H9.90443V8.81218C9.90443 8.59406 9.72742 8.41704 9.50929 8.41704C9.29117 8.41704 9.11415 8.59406 9.11415 8.81218V9.33813H8.48319C8.26507 9.33813 8.08805 9.51515 8.08805 9.73327V10.3642H7.5621C7.34398 10.3642 7.16696 10.5413 7.16696 10.7594C7.16696 10.9775 7.34398 11.1545 7.5621 11.1545H8.08805V11.6046H7.5621C7.34398 11.6046 7.16696 11.7816 7.16696 11.9997C7.16696 12.2178 7.34398 12.3948 7.5621 12.3948H8.08805V12.8449H7.5621C7.34398 12.8449 7.16696 13.0219 7.16696 13.24C7.16696 13.4581 7.34398 13.6352 7.5621 13.6352H8.08805V14.2661C8.08805 14.4842 8.26507 14.6613 8.48319 14.6613H9.11415V15.1872C9.11415 15.4053 9.29117 15.5824 9.50929 15.5824C9.72742 15.5824 9.90443 15.4053 9.90443 15.1872V14.6613H10.3545V15.1872C10.3545 15.4053 10.5315 15.5824 10.7496 15.5824C10.9677 15.5824 11.1448 15.4053 11.1448 15.1872V14.6613H11.5963V15.1872C11.5963 15.4053 11.7733 15.5824 11.9914 15.5824C12.2096 15.5824 12.3866 15.4053 12.3866 15.1872V14.6613H13.0175C13.2357 14.6613 13.4127 14.4842 13.4127 14.2661V13.6352H13.9374C14.1556 13.6352 14.3326 13.4581 14.3326 13.24C14.3326 13.0219 14.1556 12.8449 13.9374 12.8449H13.4127V12.3948H13.9374C14.1556 12.3948 14.3326 12.2178 14.3326 11.9997C14.3326 11.7816 14.1556 11.6046 13.9374 11.6046H13.4127V11.1545H13.9374C14.1556 11.1545 14.3326 10.9775 14.3326 10.7594C14.3326 10.5413 14.1556 10.3642 13.9374 10.3642H13.4127V9.73327C13.4127 9.51515 13.2357 9.33813 13.0175 9.33813H12.3866ZM12.6227 13.871H8.87863V10.1284H12.6227V13.871ZM11.7844 10.5701H9.71691C9.49879 10.5701 9.32177 10.7471 9.32177 10.9652V13.0327C9.32177 13.2508 9.49879 13.4278 9.71691 13.4278H11.7844C12.0025 13.4278 12.1796 13.2508 12.1796 13.0327V10.9652C12.1796 10.7471 12.0025 10.5701 11.7844 10.5701ZM11.3893 12.6376H10.1118V11.36H11.3893V12.6376ZM20.3713 11.3852C21.26 11.3852 21.9827 10.6622 21.9827 9.77378C21.9827 9.24872 21.7304 8.78188 21.3407 8.48755C21.6029 7.53495 21.5366 6.67957 21.143 5.9997C20.3962 4.70657 18.5897 4.16172 16.0559 4.46625C15.7127 4.50735 15.3608 4.56406 15.0022 4.63456C14.884 4.28893 14.7571 3.9562 14.6212 3.63846C13.6182 1.29223 12.2432 0 10.7496 0C9.25607 0 7.88163 1.29223 6.87833 3.63846C6.74242 3.9562 6.6158 4.28893 6.49759 4.63426C6.19186 4.57426 5.89123 4.52505 5.5963 4.48635C5.5633 4.30873 5.49999 4.13591 5.40698 3.9748C5.19246 3.60216 4.84503 3.33543 4.42919 3.22382C4.01334 3.11221 3.5789 3.16952 3.20686 3.38464C2.83393 3.59976 2.5672 3.94749 2.45589 4.36304C2.43639 4.43654 2.42199 4.51035 2.41298 4.58446C1.45709 4.83408 0.749618 5.31923 0.357778 6C-0.388996 7.29313 0.0424469 9.12991 1.5729 11.1719C1.78022 11.4485 2.00494 11.7249 2.24527 12C2.00524 12.2751 1.78022 12.5515 1.5729 12.8281C0.0424469 14.8701 -0.389296 16.7069 0.357478 18C0.96834 19.0588 2.28967 19.6157 4.13936 19.6157C4.5489 19.6157 4.98484 19.5884 5.44419 19.5332C5.78712 19.492 6.13906 19.4353 6.49729 19.3648C6.6155 19.7105 6.74242 20.0438 6.87833 20.3615C7.88133 22.7078 9.25637 24 10.7496 24C11.536 24 12.3101 23.6295 13.004 22.9268C13.2036 23.0111 13.419 23.0558 13.6365 23.0558C13.9092 23.0558 14.1853 22.9868 14.4379 22.8413C15.2075 22.3975 15.4727 21.4101 15.0295 20.6403C14.9362 20.4782 14.818 20.3366 14.68 20.2187C14.7937 19.9439 14.9014 19.6592 15.0022 19.3645C15.3608 19.435 15.7124 19.4914 16.0556 19.5329C16.515 19.5881 16.9506 19.6154 17.3602 19.6154C19.2096 19.6154 20.5312 19.0585 21.1427 18C21.8897 16.7066 21.458 14.8698 19.9272 12.8278C19.7202 12.5515 19.4955 12.2754 19.2555 12.0003C19.4604 11.7654 19.6536 11.5296 19.8348 11.2934C20.0025 11.3528 20.1832 11.3855 20.371 11.3855L20.3713 11.3852ZM20.3713 10.5953C19.9191 10.5953 19.5513 10.2268 19.5513 9.77378C19.5513 9.32073 19.9191 8.95229 20.3713 8.95229C20.8234 8.95229 21.1928 9.32073 21.1928 9.77378C21.1928 10.2268 20.8243 10.5953 20.3713 10.5953ZM7.6053 3.94869C8.46369 1.94119 9.6098 0.789679 10.7499 0.789679C11.89 0.789679 13.037 1.94119 13.8951 3.94869C14.0124 4.22322 14.1229 4.50945 14.2264 4.80618C13.1082 5.08161 11.9356 5.48605 10.7514 6.0039C9.5657 5.48485 8.39318 5.08071 7.27407 4.80558C7.37758 4.50915 7.48799 4.22292 7.6053 3.94869ZM15.3161 11.9997C15.3161 12.8761 15.2747 13.7354 15.194 14.5659C14.515 15.0507 13.7919 15.5161 13.0331 15.9538C12.2756 16.3912 11.5108 16.7846 10.7502 17.1299C9.98964 16.7843 9.22456 16.3912 8.46699 15.9538C7.70941 15.5164 6.98604 15.0507 6.30677 14.565C6.22577 13.7336 6.18406 12.8746 6.18406 11.9997C6.18406 11.1248 6.22577 10.2658 6.30677 9.43444C6.98634 8.94869 7.70941 8.48305 8.46699 8.0456C9.22516 7.60786 9.99054 7.21422 10.7514 6.86859C11.5105 7.21392 12.275 7.60756 13.0331 8.0456C13.7907 8.48275 14.5138 8.94839 15.1934 9.43414C15.2744 10.2655 15.3161 11.1248 15.3161 11.9997ZM16.0385 10.0663C16.8354 10.6904 17.5576 11.3405 18.1871 12.0006C17.5582 12.6607 16.836 13.3099 16.0388 13.934C16.0832 13.3009 16.1064 12.6547 16.1064 11.9997C16.1064 11.3447 16.083 10.6997 16.0385 10.0663ZM15.0688 15.6136C14.9269 16.6154 14.7256 17.5647 14.4688 18.4386C13.5828 18.2238 12.6593 17.9235 11.7205 17.5458C12.2912 17.2676 12.8618 16.9649 13.428 16.6382C13.995 16.3108 14.5429 15.9682 15.0688 15.6136ZM9.77962 17.5461C8.84113 17.9238 7.91793 18.2238 7.03195 18.4386C6.77512 17.5644 6.5735 16.6148 6.43129 15.6133C6.95754 15.9685 7.50539 16.3114 8.07155 16.6382C8.63801 16.9649 9.20896 17.2679 9.77962 17.5461ZM5.46129 13.9328C4.66501 13.309 3.94344 12.6595 3.31487 12C3.94374 11.3405 4.66531 10.691 5.46129 10.0672C5.41688 10.7006 5.39378 11.3462 5.39378 12C5.39378 12.6538 5.41688 13.2994 5.46129 13.9328ZM6.43159 8.38644C6.5738 7.38434 6.77572 6.43414 7.03255 5.55956C7.91853 5.77408 8.84203 6.07471 9.78082 6.45275C9.20956 6.73117 8.63831 7.0342 8.07155 7.36154C7.50539 7.68857 6.95784 8.0312 6.43159 8.38644ZM13.428 7.36154C12.8612 7.0342 12.2909 6.73117 11.7208 6.45304C12.659 6.07531 13.5822 5.77528 14.4679 5.56046C14.7247 6.43504 14.9263 7.38464 15.0682 8.38614C14.542 8.0312 13.9941 7.68827 13.428 7.36154ZM3.21946 4.56706C3.27617 4.35524 3.41208 4.17822 3.6026 4.06841C3.72862 3.9955 3.86873 3.9583 4.01064 3.9583C4.08205 3.9583 4.15406 3.9676 4.22487 3.9868C4.43669 4.0435 4.6137 4.17942 4.72262 4.36874C4.83243 4.55926 4.86183 4.78098 4.80512 4.9925C4.74842 5.20432 4.6125 5.38134 4.42198 5.49115C4.23207 5.60096 4.01064 5.63006 3.79882 5.57306C3.5873 5.51635 3.41118 5.38074 3.30197 5.19052C3.19216 5.0003 3.16276 4.77858 3.21946 4.56706ZM2.20566 10.6979C0.896032 8.95079 0.47209 7.38224 1.04275 6.39424C1.31817 5.91539 1.81322 5.57366 2.51499 5.37444C2.5438 5.44644 2.5777 5.51665 2.617 5.58506C2.83123 5.958 3.17806 6.22472 3.5936 6.33633C3.73282 6.37384 3.87413 6.39214 4.01424 6.39214C4.29357 6.39214 4.569 6.31893 4.81712 6.17552C5.16636 5.9742 5.42228 5.65677 5.545 5.27633C5.77902 5.30813 6.01694 5.34683 6.25847 5.39244C5.93744 6.49925 5.70161 7.71707 5.5579 9.0024C4.51679 9.76928 3.5804 10.5827 2.78232 11.4137C2.5771 11.1755 2.38478 10.9367 2.20566 10.6979ZM5.35028 18.7483C3.18256 19.009 1.6122 18.5923 1.04245 17.6046C0.47209 16.6172 0.896032 15.0486 2.20566 13.3015C2.38478 13.0627 2.5774 12.8239 2.78262 12.5857C3.5804 13.4167 4.51709 14.2301 5.5582 14.997C5.70191 16.282 5.93774 17.4998 6.25877 18.6064C5.95004 18.6649 5.64671 18.7126 5.35058 18.748L5.35028 18.7483ZM14.0442 22.1563C13.6524 22.3819 13.1496 22.2472 12.9233 21.856C12.6968 21.4635 12.8315 20.9601 13.224 20.7339C13.3503 20.6607 13.4907 20.6235 13.6329 20.6235C13.7043 20.6235 13.776 20.6328 13.8468 20.6517C14.0586 20.7084 14.2357 20.8443 14.3455 21.0342C14.5714 21.4266 14.4361 21.9301 14.0442 22.1563ZM13.9701 19.8692C13.5792 19.7855 13.1769 19.8485 12.8288 20.0498C12.0595 20.4938 11.7949 21.4812 12.239 22.2514C12.2786 22.3198 12.3227 22.384 12.3704 22.444C11.8468 22.9517 11.3029 23.2094 10.7502 23.2094C9.6101 23.2094 8.46399 22.0579 7.6056 20.0504C7.48829 19.7759 7.37758 19.4893 7.27407 19.1923C8.39288 18.9169 9.5657 18.5121 10.7505 17.994C11.9353 18.5121 13.1082 18.9166 14.2267 19.192C14.1454 19.4242 14.0598 19.6499 13.9701 19.8686V19.8692ZM19.2957 13.3018C20.6053 15.0489 21.0295 16.6175 20.4592 17.6049C20.0001 18.3993 18.8939 18.8245 17.3497 18.8245C16.9749 18.8245 16.5738 18.7993 16.1505 18.7486C15.854 18.7129 15.551 18.6655 15.242 18.6067C15.563 17.5008 15.7991 16.2844 15.9425 14.9985C16.9851 14.231 17.9212 13.4179 18.719 12.5866C18.9239 12.8245 19.1166 13.0633 19.2957 13.3018ZM15.9419 9.0021C15.7982 7.71707 15.5624 6.49925 15.2417 5.39274C15.5507 5.33393 15.854 5.28653 16.1505 5.25082C18.3185 4.9904 19.8885 5.40744 20.4592 6.39544C20.7358 6.87339 20.7844 7.47255 20.6059 8.18002C20.5294 8.16892 20.4511 8.16262 20.3713 8.16262C19.4835 8.16262 18.761 8.88569 18.761 9.77408C18.761 10.189 18.9185 10.5677 19.1766 10.8536C19.0319 11.0408 18.8792 11.2277 18.7187 11.414C17.9206 10.5827 16.9833 9.76928 15.9419 9.0021Z" fill="#00B093"/>
</svg>
